<?xml version="1.0" encoding="UTF-8"?><svg id="Ebene_1" xmlns="http://www.w3.org/2000/svg" viewBox="0 0 132.49 73.99"><defs><style>.cls-1{fill:#a1a8d5;}.cls-2{fill:#1d1d1b;}</style></defs><g><path class="cls-2" d="M57.43,13.38c.89,2.19-.23,4.8-2.68,5.78-.72,.29-.89,.6-.89,1.25,.01,2.37,.03,4.75-.01,7.12-.01,.77,.25,1.03,1,1.35,2.55,1.1,3.52,3.87,2.36,6.23-1.05,2.14-4.23,3.21-6.5,1.96-1.05-.58-1.78-.51-2.7,.08-1.17,.75-2.37,1.44-3.61,2.06-1.67,.85-3.28,1.61-2.99,3.98,.11,.85-.59,1.8-1.29,2.11-2.24,.99-1.9,2.86-1.89,4.66,0,.4,0,.79,0,1.19,0,.72,.05,1.45-.01,2.18-.11,1.45,.09,2.51,1.62,3.38,1.95,1.11,2.26,4.13,.99,5.98-1.28,1.87-4.06,2.6-5.99,1.43-.77-.47-1.31-.6-2.12-.13-1.47,.86-3.05,1.56-4.53,2.41-1.41,.8-2.84,1.31-2.88,3.61-.05,2.42-2.52,3.95-4.78,3.69-2.4-.28-4.05-2.01-4.02-4.54,.01-.99-.34-1.4-1.1-1.81-1.57-.85-3.11-1.75-4.64-2.65-1.38-.81-2.58-1.41-4.3-.35-1.88,1.15-4.47,0-5.57-1.98-1.15-2.08-.76-4.5,1.28-5.75,1.37-.84,1.64-1.83,1.55-3.23-.08-1.25-.1-2.51,0-3.76,.14-1.79-.12-3.14-1.87-4.27-1.89-1.23-2.06-3.83-.83-5.67,1.32-1.98,3.78-2.78,5.88-1.6,1.2,.68,2.08,.49,3.11-.1,1.32-.76,2.61-1.55,3.97-2.23,1.6-.79,2.85-1.62,2.64-3.78-.13-1.33,1.06-2.23,2.16-2.84,.84-.47,1.02-1.05,.99-1.91-.05-1.45-.03-2.9,0-4.35,.03-1.88,.34-3.74-2.01-4.77-1.12-.49-1.43-1.93-1.25-3.13,.18-1.23-.39-1.79-1.31-2.34-1.42-.85-2.79-1.77-4.16-2.69-1.53-1.03-2.89-1.84-4.99-.88-2.1,.95-4.45-.42-5.37-2.5C-.22,4.53,.44,2.38,2.37,1.06,4.24-.21,6.45,.05,8.18,1.6c1.15,1.03,1.89,2.16,1.58,3.75-.15,.79,.25,1.19,.87,1.57,1.52,.93,3.02,1.89,4.5,2.88,1.44,.97,2.71,2.17,4.69,.86,.8-.53,2.23-.47,3.03,.23,1.24,1.07,2.13,.43,3.16-.18,1.08-.64,2.17-1.27,3.27-1.86,1.73-.94,3.43-1.63,3.54-4.22,.08-2.05,2.71-3.47,4.77-3.19,2.17,.29,3.98,2.07,3.94,4.26-.03,1.28,.44,1.88,1.49,2.4,1.24,.61,2.41,1.36,3.62,2.04,1.49,.84,2.69,1.81,4.75,.59,2.16-1.27,5.09,.34,6.03,2.65Zm-2.05,1.75c.13-1.1-1.35-2.35-2.68-2.31-1.36,.03-2.1,.86-2.16,2.11-.06,1.36,.72,2.2,2.24,2.32,1.18-.25,2.41-.58,2.59-2.12Zm-2.49,20.18c1.19-.12,2.54-.76,2.45-2.31s-1.44-1.81-2.55-2.07c-1.43,.11-2.29,.76-2.28,2.08,.01,1.46,.97,2.44,2.38,2.3Zm-3.33-5.37c2.19-1.08,2.07-2.87,1.99-4.79-.06-1.45-.04-2.9,0-4.35,.02-.85-.13-1.44-1.04-1.85-1.18-.54-2.26-1.57-2.12-2.86,.24-2.29-1.23-3.02-2.81-3.85-1.11-.58-2.23-1.16-3.27-1.86-1.15-.76-2.16-1.23-3.51-.25-.86,.62-2.17,.69-3.04,.09-1.83-1.28-3.31-.4-4.84,.45-1.21,.67-2.38,1.41-3.62,2.05-1.08,.56-1.93,1.02-1.77,2.59,.12,1.21-.57,2.58-1.73,3.15-1.81,.88-1.79,2.3-1.7,3.88,.03,.59,0,1.19,0,1.78,0,.66,.05,1.32-.01,1.97-.14,1.51,.08,2.65,1.67,3.5,1.31,.7,1.93,2.2,1.79,3.72-.07,.81,.13,1.19,.79,1.55,1.73,.95,3.41,2.01,5.18,2.9,1.24,.62,2.51,1.37,3.95,.11,.7-.62,1.85-.6,2.64-.1,2.13,1.35,3.8,.35,5.52-.8,.99-.66,2.01-1.28,3.09-1.76,1.17-.52,1.76-1.22,1.57-2.55-.18-1.15,.38-2.28,1.27-2.72Zm-12.55,32.43c1.41-.01,2.11-.86,2.25-2.14-.12-1.51-.99-2.22-2.34-2.22s-2.11,.84-2.11,2.12c0,1.35,.75,2.25,2.19,2.24Zm2.22-20.15c-.03-1.5-.92-2.31-2.22-2.37-1.4-.06-2.17,.95-2.19,2.29-.03,1.3,.74,2.1,2.09,2.12,1.37,.02,2.28-.59,2.33-2.04Zm.02-36.27c-.08-1.43-.97-2.15-2.3-2.15-1.3,0-2.12,.85-2.13,2.12-.01,1.35,.77,2.23,2.2,2.25,1.45,.03,2.1-.85,2.23-2.22Zm-4.96,50.73c1.59-.81,1.71-1.95,1.61-3.4-.05-.72-.01-1.45,0-2.18-.1-2.23,.72-4.77-2.26-6.01-.47-.19-.93-1.11-.89-1.67,.15-2.58-1.78-3.29-3.52-4.22-.93-.5-1.85-1.02-2.75-1.57-1.24-.75-2.33-1.59-3.88-.35-.69,.56-2.02,.65-2.85,.08-2.03-1.4-3.54-.22-5.15,.75-1.07,.64-2.14,1.32-3.28,1.84-1.16,.53-1.74,1.24-1.58,2.58,.09,.78-.16,1.49-.99,1.97-2.49,1.46-3.13,3.74-2.72,6.47,.14,.97,.08,1.98,0,2.96-.09,1.15,.21,1.9,1.31,2.55,1.01,.6,2.44,1.36,2.31,2.69-.22,2.22,1.14,2.94,2.69,3.74,1.29,.67,2.55,1.38,3.78,2.16,1.02,.65,1.86,.94,2.97,.05,.84-.68,2.25-.77,3.03-.24,2.21,1.51,3.75,.16,5.45-.85,1.3-.77,2.61-1.55,3.97-2.22,.67-.33,.99-.64,.92-1.45-.14-1.57,.51-3.02,1.83-3.69Zm-13.4,14.76c1.45,.07,2.32-.83,2.31-2.14,0-1.24-.73-2.24-2.34-2.29-1.2,.06-1.99,.84-2.06,2.08-.08,1.34,.66,2.27,2.09,2.35Zm2.31-56.35c.03-1.29-.75-2.2-1.88-2.26-1.81,0-2.55,.95-2.56,2.22,0,1.32,.87,2.18,2.29,2.16,1.35-.02,2.13-.92,2.15-2.12Zm0,18.07c.03-1.34-.81-2.16-2.27-2.21-1.28,.06-2.15,.71-2.17,2.02-.02,1.47,.91,2.38,2.33,2.38,1.29,0,2.08-.99,2.1-2.19ZM7.07,42.26c0-1.58-.93-2.37-2.19-2.39-1.3-.02-2.24,.82-2.21,2.24,.02,1.28,.71,2.1,2.08,2.1,1.37,0,2.25-.59,2.32-1.95Zm.03-37.41c-.06-1.51-.95-2.23-2.27-2.25-1.29-.02-2.13,.82-2.15,2.09-.02,1.32,.67,2.28,2.14,2.3,1.42,.02,2.08-.88,2.29-2.14Zm.01,55.38c-.13-1.53-1-2.23-2.35-2.23-1.32,0-2.09,.84-2.1,2.12-.01,1.37,.76,2.24,2.2,2.24,1.43,0,2.06-.92,2.25-2.14Z"/><path class="cls-1" d="M27.16,46.42c.13,.52,.82,1.52-.4,1.73-.76,.13-1.6,.34-2.02-.92-.8-2.38-2.22-3.26-4.4-3.12-1.98,.13-3.6,1.53-4.14,3.68-.62,2.47-.64,4.97,.03,7.43,.59,2.17,2.05,3.42,4.01,3.55,2.34,.15,3.57-.55,4.45-2.99,.48-1.33,1.42-1.09,2.19-.89,.93,.25,.36,1.14,.21,1.66-.72,2.59-3.23,4.21-6.44,4.27-3.26,.05-5.67-1.57-6.7-4.52-.55-1.58-.7-3.21-.6-4.29-.06-4.41,.66-7.84,4.74-9.48,3.66-1.47,8.23,.47,9.07,3.89Z"/><path class="cls-1" d="M75.02,27.27c1.09,.27,.5,1.16,.32,1.76-1.05,3.49-4.94,5.37-8.64,4.12-3.1-1.05-5.05-3.08-5.46-6.5-.31-2.54-.22-4.99,.6-7.39,.94-2.77,3.99-4.67,7.31-4.7,2.9-.02,5.22,1.59,6.16,4.35,.2,.6,.8,1.49-.19,1.78-.85,.24-1.98,.47-2.25-1.07-.29-1.64-1.37-2.65-3.08-2.83-1.97-.21-3.71,.18-4.72,2.09-.84,1.59-1.86,3.16-1.29,5.08-.42,1.81,.27,3.33,1.03,4.87,.86,1.73,2.27,2.64,4.11,2.53,1.92-.11,3.66-.78,4-3.07,.21-1.38,1.28-1.24,2.12-1.03Z"/><path class="cls-1" d="M62,54.38c1.09,.27,.5,1.16,.32,1.76-1.05,3.48-4.94,5.37-8.64,4.12-3.1-1.05-5.05-3.08-5.46-6.5-.31-2.54-.22-4.99,.6-7.39,.94-2.78,3.99-4.67,7.31-4.7,2.9-.02,5.22,1.59,6.16,4.35,.2,.6,.8,1.49-.19,1.78-.85,.24-1.98,.47-2.25-1.07-.29-1.65-1.37-2.65-3.08-2.83-1.97-.21-3.71,.18-4.72,2.09-.84,1.6-1.86,3.16-1.29,5.08-.42,1.81,.27,3.33,1.03,4.87,.86,1.73,2.27,2.64,4.11,2.53,1.92-.11,3.66-.79,4-3.07,.21-1.38,1.28-1.24,2.12-1.02Z"/><path class="cls-1" d="M42.94,27.27c1.09,.27,.5,1.16,.32,1.76-1.05,3.49-4.94,5.37-8.64,4.12-3.1-1.05-5.05-3.08-5.46-6.5-.31-2.54-.22-4.99,.6-7.39,.94-2.77,3.99-4.67,7.31-4.7,2.9-.02,5.22,1.59,6.16,4.35,.2,.6,.8,1.49-.19,1.78-.85,.24-1.98,.47-2.25-1.07-.29-1.64-1.37-2.65-3.08-2.83-1.97-.21-3.71,.18-4.72,2.09-.84,1.59-1.86,3.16-1.29,5.08-.42,1.81,.27,3.33,1.03,4.87,.86,1.73,2.27,2.64,4.11,2.53,1.92-.11,3.66-.78,4-3.07,.21-1.38,1.28-1.24,2.12-1.03Z"/></g><g><path class="cls-2" d="M78.11,19.7h2.63v5.08h.04c.23-.34,.52-.61,.85-.83,.37-.22,.84-.36,1.32-.36,1.8,0,2.5,1.53,2.5,4.02v5.93h-2.63v-5.95c0-.95-.18-1.8-.97-1.8-.44,0-.81,.25-1.01,.93-.04,.16-.1,.51-.1,.74v6.08h-2.63v-13.84Z"/><path class="cls-2" d="M89.46,29.58c.03,1.53,.91,2.09,2.07,2.09,.75,0,1.39-.16,1.87-.33l.34,1.88c-.67,.27-1.7,.45-2.68,.45-2.67,0-4.13-1.76-4.13-4.82,0-3.29,1.72-5.25,3.92-5.25s3.34,1.66,3.34,4.62c0,.7-.03,1.09-.08,1.36h-4.64Zm2.33-1.84c0-1.26-.33-2.24-1.1-2.24-.85,0-1.2,1.25-1.22,2.24h2.33Z"/><path class="cls-2" d="M95.65,26.69c0-1.07-.04-2.01-.08-2.95h2.28l.13,1.14h.04c.5-.73,1.32-1.3,2.33-1.3,1.1,0,1.8,.51,2.13,1.34h.04c.24-.38,.61-.75,1-.99,.4-.23,.87-.35,1.37-.35,1.75,0,2.53,1.39,2.53,3.74v6.21h-2.61v-5.77c0-1.11-.13-2.01-.91-2.01-.46,0-.81,.32-.99,.89-.04,.15-.08,.42-.08,.7v6.19h-2.61v-6.13c0-.71-.07-1.64-.89-1.64-.4,0-.8,.29-.98,.88-.06,.17-.1,.45-.1,.74v6.16h-2.61v-6.85Z"/><path class="cls-2" d="M111.87,21.16c.02,.84-.58,1.42-1.37,1.42-.72,0-1.31-.58-1.3-1.42-.02-.88,.61-1.43,1.33-1.43s1.34,.55,1.34,1.43Zm-2.63,12.38v-9.79h2.63v9.79h-2.63Z"/><path class="cls-2" d="M119.14,33.37c-.27,.13-.92,.29-1.67,.29-2.48,0-4.1-1.72-4.1-4.92,0-3.03,1.78-5.12,4.49-5.12,.62,0,1.18,.14,1.43,.26l-.34,2.05c-.22-.07-.54-.18-.98-.18-1.26,0-2,1.2-2,2.9s.75,2.87,1.97,2.87c.38,0,.69-.07,.98-.21l.22,2.05Z"/><path class="cls-2" d="M124.86,33.54l-.14-.97h-.04c-.53,.76-1.3,1.13-2.16,1.13-1.48,0-2.58-1.24-2.58-2.97,0-2.57,2.26-3.62,4.47-3.64v-.22c0-.77-.45-1.34-1.38-1.34-.78,0-1.41,.21-1.99,.57l-.48-1.76c.54-.31,1.68-.75,3.04-.75,2.97,0,3.46,2.08,3.46,4.07v3.64c0,.78,.03,1.58,.14,2.24h-2.35Zm-.38-4.77c-.87,.02-2.07,.31-2.07,1.67,0,.97,.54,1.33,.95,1.33,.43,0,.89-.25,1.07-.84,.04-.13,.06-.28,.06-.45v-1.71Z"/><path class="cls-2" d="M128.9,19.7h2.63v13.84h-2.63v-13.84Z"/></g><g><path class="cls-2" d="M72.2,55.89c0,4.08-2.26,5.09-3.74,5.09-2.34,0-3.74-1.85-3.74-5.02,0-3.51,1.85-5.09,3.79-5.09,2.31,0,3.69,1.94,3.69,5.02Zm-4.88,.02c0,1.67,.27,3.08,1.2,3.08,.85,0,1.07-1.65,1.07-3.08,0-1.36-.22-3.05-1.11-3.05-.96,0-1.16,1.69-1.16,3.05Z"/><path class="cls-2" d="M73.68,53.97c0-1.07-.04-2.01-.08-2.95h2.28l.13,1.14h.04c.5-.73,1.32-1.3,2.33-1.3,1.1,0,1.8,.51,2.13,1.34h.04c.24-.38,.61-.75,1-.99,.4-.23,.87-.35,1.37-.35,1.75,0,2.53,1.39,2.53,3.74v6.21h-2.61v-5.77c0-1.11-.13-2.01-.91-2.01-.46,0-.81,.32-.99,.89-.04,.15-.08,.42-.08,.7v6.19h-2.61v-6.13c0-.71-.07-1.64-.89-1.64-.4,0-.8,.29-.98,.88-.06,.17-.1,.45-.1,.74v6.16h-2.61v-6.84Z"/><path class="cls-2" d="M87.27,54.13c0-1.18-.04-2.17-.08-3.1h2.27l.13,1.14h.04c.41-.8,1.14-1.3,2.06-1.3,2.14,0,3.02,2.34,3.02,5.05,0,3.49-1.52,5.06-3.18,5.06-.79,0-1.34-.49-1.61-.95h-.04v4.63h-2.61v-10.53Zm2.61,3.12c0,.32,.05,.63,.13,.83,.2,.6,.55,.76,.85,.76,.92,0,1.25-1.35,1.25-2.89,0-1.86-.45-2.86-1.23-2.86-.41,0-.78,.38-.89,.84-.08,.2-.11,.45-.11,.7v2.63Z"/><path class="cls-2" d="M100.61,60.82l-.14-.96h-.04c-.53,.76-1.3,1.12-2.16,1.12-1.48,0-2.58-1.24-2.58-2.97,0-2.57,2.26-3.62,4.47-3.64v-.22c0-.77-.45-1.34-1.38-1.34-.78,0-1.41,.21-1.99,.57l-.48-1.76c.54-.31,1.68-.75,3.04-.75,2.97,0,3.46,2.08,3.46,4.07v3.64c0,.78,.03,1.58,.14,2.24h-2.35Zm-.38-4.77c-.87,.02-2.07,.31-2.07,1.67,0,.97,.54,1.33,.95,1.33,.43,0,.89-.25,1.07-.84,.04-.13,.06-.28,.06-.45v-1.71Z"/><path class="cls-2" d="M104.66,53.97c0-1.07-.04-2.01-.08-2.95h2.26l.13,1.13h.04c.5-.78,1.35-1.29,2.37-1.29,1.86,0,2.61,1.48,2.61,3.67v6.28h-2.63v-6.13c0-.82-.19-1.62-.97-1.62-.43,0-.8,.3-.98,.88-.07,.2-.13,.52-.13,.9v5.96h-2.63v-6.84Z"/><path class="cls-2" d="M115.62,51.03l.96,5.1c.11,.58,.19,1.1,.28,1.64h.04c.07-.5,.15-1.06,.24-1.61l.81-5.13h2.57l-2,7.56c-.48,1.84-1.12,3.73-2.18,4.99-.83,.97-1.82,1.43-2.23,1.55l-.79-2.27c.44-.16,.9-.45,1.29-.81,.36-.34,.63-.74,.82-1.16,.08-.17,.13-.29,.13-.43,0-.12-.03-.24-.07-.36l-2.69-9.06h2.82Z"/></g></svg>