<?xml version="1.0" encoding="UTF-8"?><svg id="Ebene_1" xmlns="http://www.w3.org/2000/svg" viewBox="0 0 217.21 277.55"><defs><style>.cls-1{fill:#a1a8d5;}.cls-2{fill:#1d1d1b;}</style></defs><path class="cls-1" d="M215.81,49.74c3.37,8.27-.87,18.09-10.08,21.78-2.72,1.1-3.38,2.27-3.37,4.72,.04,8.95,.11,17.9-.04,26.84-.05,2.92,.96,3.89,3.77,5.1,9.62,4.15,13.28,14.57,8.9,23.5-3.97,8.08-15.95,12.09-24.51,7.39-3.98-2.18-6.71-1.9-10.18,.31-4.4,2.8-8.95,5.42-13.61,7.78-6.29,3.18-12.37,6.06-11.26,15.02,.4,3.21-2.23,6.79-4.88,7.97-8.46,3.74-7.19,10.76-7.12,17.57,.02,1.49,0,2.98,0,4.47,0,2.74,.17,5.49-.03,8.2-.42,5.47,.35,9.46,6.11,12.75,7.35,4.2,8.52,15.58,3.74,22.55-4.83,7.04-15.3,9.8-22.58,5.4-2.91-1.76-4.95-2.26-7.99-.47-5.55,3.25-11.47,5.87-17.06,9.06-5.29,3.03-10.7,4.93-10.86,13.59-.17,9.14-9.52,14.89-18.01,13.92-9.06-1.03-15.28-7.57-15.17-17.13,.05-3.71-1.28-5.27-4.13-6.81-5.92-3.2-11.71-6.6-17.51-10.01-5.2-3.05-9.7-5.31-16.21-1.33-7.08,4.33-16.86,.03-21-7.47-4.32-7.83-2.85-16.97,4.8-21.68,5.15-3.17,6.19-6.9,5.84-12.18-.31-4.7-.36-9.47,.01-14.16,.54-6.74-.48-11.84-7.05-16.11-7.11-4.63-7.75-14.43-3.13-21.37,4.97-7.47,14.26-10.48,22.15-6.03,4.52,2.55,7.85,1.85,11.71-.37,4.95-2.86,9.84-5.87,14.96-8.4,6.04-2.98,10.75-6.1,9.97-14.24-.48-5.04,4.01-8.39,8.14-10.7,3.15-1.75,3.86-3.95,3.76-7.18-.18-5.47-.13-10.94-.03-16.41,.14-7.09,1.28-14.11-7.55-17.96-4.23-1.85-5.4-7.26-4.73-11.81,.68-4.63-1.46-6.74-4.95-8.82-5.34-3.18-10.52-6.66-15.68-10.13-5.78-3.89-10.9-6.92-18.81-3.33-7.91,3.6-16.77-1.57-20.23-9.42C-1.51,16.37,.95,8.27,8.26,3.29,15.28-1.49,23.62-.5,30.12,5.34c4.35,3.89,7.13,8.13,5.98,14.13-.57,2.97,.95,4.51,3.28,5.94,5.73,3.51,11.4,7.13,16.98,10.86,5.44,3.63,10.21,8.18,17.69,3.24,3.01-1.99,8.41-1.76,11.45,.86,4.68,4.04,8.03,1.62,11.89-.68,4.07-2.42,8.17-4.77,12.33-7.02,6.55-3.53,12.95-6.15,13.33-15.9,.31-7.73,10.2-13.1,18-12.04,8.2,1.1,15.02,7.82,14.85,16.07-.09,4.84,1.67,7.09,5.6,9.03,4.68,2.3,9.11,5.12,13.66,7.69,5.62,3.17,10.13,6.82,17.91,2.24,8.15-4.8,19.19,1.27,22.74,9.98Zm-7.71,6.59c.5-4.15-5.09-8.85-10.09-8.73-5.12,.13-7.94,3.27-8.13,7.95-.22,5.12,2.72,8.28,8.44,8.75,4.44-.95,9.08-2.18,9.78-7.97Zm-9.4,76.05c4.5-.46,9.57-2.86,9.25-8.72-.31-5.84-5.4-6.82-9.63-7.79-5.37,.4-8.63,2.86-8.58,7.84,.06,5.52,3.64,9.21,8.96,8.67Zm-12.57-20.26c8.24-4.06,7.8-10.83,7.5-18.04-.22-5.45-.15-10.92,0-16.38,.09-3.23-.48-5.42-3.93-6.99-4.44-2.01-8.51-5.92-8.01-10.8,.9-8.64-4.65-11.38-10.58-14.49-4.19-2.19-8.39-4.39-12.32-7-4.34-2.89-8.13-4.65-13.23-.97-3.23,2.33-8.19,2.61-11.46,.33-6.92-4.81-12.47-1.5-18.26,1.69-4.58,2.53-9,5.33-13.63,7.72-4.08,2.1-7.28,3.83-6.7,9.76,.45,4.56-2.16,9.74-6.53,11.86-6.8,3.29-6.73,8.67-6.39,14.62,.13,2.22,.02,4.47,.02,6.7,0,2.48,.19,4.98-.04,7.45-.52,5.68,.33,10,6.29,13.19,4.92,2.62,7.26,8.28,6.75,14.03-.28,3.06,.49,4.5,2.96,5.85,6.55,3.58,12.86,7.59,19.52,10.93,4.69,2.34,9.49,5.17,14.9,.4,2.64-2.33,6.96-2.27,9.97-.36,8.02,5.1,14.3,1.33,20.81-3,3.72-2.46,7.59-4.82,11.66-6.62,4.42-1.96,6.66-4.62,5.9-9.64-.65-4.34,1.45-8.59,4.8-10.24Zm-47.31,122.25c5.31-.03,7.95-3.24,8.5-8.05-.48-5.72-3.74-8.38-8.82-8.38-4.99-.01-7.94,3.15-7.95,7.98,0,5.08,2.82,8.49,8.27,8.45Zm8.36-75.94c-.12-5.68-3.46-8.72-8.36-8.92-5.27-.21-8.17,3.6-8.27,8.62-.1,4.88,2.79,7.9,7.85,7.97,5.19,.07,8.59-2.22,8.78-7.67Zm.09-136.75c-.32-5.38-3.66-8.1-8.68-8.12-4.89-.02-7.97,3.2-8.01,8.01-.04,5.09,2.89,8.39,8.29,8.49,5.47,.1,7.91-3.2,8.4-8.38Zm-18.69,191.25c5.98-3.05,6.46-7.36,6.06-12.81-.2-2.71-.03-5.46-.02-8.19-.38-8.43,2.71-18.01-8.52-22.64-1.75-.73-3.49-4.2-3.36-6.3,.57-9.71-6.7-12.4-13.28-15.91-3.51-1.87-6.97-3.84-10.37-5.9-4.65-2.83-8.78-6.01-14.6-1.32-2.61,2.1-7.62,2.43-10.73,.29-7.66-5.27-13.33-.81-19.41,2.83-4.05,2.43-8.07,4.97-12.34,6.94-4.36,2.01-6.57,4.67-5.97,9.71,.35,2.95-.62,5.61-3.73,7.43-9.41,5.52-11.8,14.08-10.27,24.39,.55,3.65,.32,7.46,.03,11.16-.33,4.34,.81,7.16,4.95,9.61,3.8,2.24,9.18,5.13,8.68,10.14-.83,8.34,4.31,11.07,10.14,14.08,4.86,2.5,9.64,5.2,14.24,8.13,3.84,2.44,7.01,3.56,11.22,.18,3.17-2.55,8.49-2.92,11.44-.9,8.33,5.71,14.11,.62,20.52-3.18,4.92-2.92,9.85-5.85,14.97-8.36,2.54-1.25,3.73-2.43,3.46-5.47-.52-5.89,1.93-11.38,6.89-13.91ZM86.77,56.14c.09-4.88-2.84-8.29-7.09-8.52-6.83-.03-9.64,3.58-9.66,8.36-.03,4.96,3.28,8.23,8.65,8.16,5.08-.07,8.01-3.48,8.1-8Zm-8.72,212.42c5.44,.28,8.73-3.12,8.71-8.05-.02-4.68-2.75-8.43-8.82-8.62-4.55,.25-7.52,3.16-7.79,7.83-.29,5.07,2.5,8.57,7.9,8.84Zm8.68-144.31c.11-5.04-3.05-8.13-8.56-8.33-4.81,.24-8.09,2.69-8.17,7.63-.09,5.53,3.43,8.95,8.81,8.96,4.85,.01,7.83-3.74,7.92-8.26Zm-60.77,34.34c.01-5.95-3.49-8.92-8.27-9.01-4.89-.1-8.45,3.08-8.34,8.44,.1,4.81,2.7,7.91,7.85,7.94s8.47-2.25,8.76-7.37Zm.09-141.02c-.23-5.67-3.57-8.39-8.56-8.49-4.89-.09-8.03,3.09-8.11,7.88-.07,4.96,2.55,8.6,8.06,8.66,5.37,.07,7.84-3.3,8.61-8.05Zm-8.45,216.81c5.4,0,7.77-3.46,8.51-8.06-.51-5.75-3.78-8.4-8.86-8.38-4.98,.01-7.89,3.18-7.92,8.01-.04,5.15,2.87,8.42,8.27,8.43Z"/><path class="cls-2" d="M161.2,102.1c4.1,1.03,1.87,4.37,1.19,6.65-3.94,13.13-18.63,20.24-32.58,15.52-11.7-3.96-19.03-11.6-20.6-24.52-1.16-9.55-.81-18.81,2.26-27.84,3.56-10.46,15.04-17.61,27.57-17.7,10.93-.08,19.68,6,23.22,16.4,.77,2.26,3.03,5.63-.73,6.7-3.18,.91-7.46,1.79-8.5-4.01-1.1-6.21-5.15-9.98-11.62-10.69-7.44-.81-13.98,.69-17.79,7.89-3.18,6.01-7,11.93-4.88,19.16-1.57,6.82,1,12.55,3.88,18.33,3.25,6.52,8.57,9.96,15.49,9.56,7.22-.42,13.78-2.96,15.08-11.58,.78-5.21,4.82-4.66,8.01-3.87Z"/><path class="cls-2" d="M101.7,174.29c.48,1.96,3.08,5.73-1.5,6.53-2.86,.49-6.03,1.27-7.61-3.46-3.01-8.99-8.37-12.3-16.56-11.75-7.47,.49-13.59,5.77-15.63,13.87-2.35,9.32-2.41,18.73,.12,28.02,2.22,8.17,7.74,12.88,15.1,13.36,8.82,.57,13.45-2.06,16.78-11.29,1.81-5.02,5.36-4.11,8.26-3.33,3.51,.93,1.35,4.28,.8,6.26-2.73,9.77-12.17,15.87-24.26,16.07-12.3,.2-21.39-5.92-25.25-17.04-2.07-5.95-2.64-12.09-2.29-16.18-.2-16.62,2.49-29.56,17.86-35.72,13.8-5.54,31.01,1.76,34.18,14.66Z"/></svg>