<?xml version="1.0" encoding="UTF-8"?><svg id="Ebene_1" xmlns="http://www.w3.org/2000/svg" viewBox="0 0 133.71 73.5"><defs><style>.cls-1{fill:#f4991a;}.cls-2{fill:#1d1d1b;}</style></defs><path class="cls-1" d="M57.18,13.13c.89,2.19-.23,4.8-2.68,5.78-.72,.29-.89,.6-.89,1.25,.01,2.37,.03,4.75-.01,7.12-.01,.77,.25,1.03,1,1.35,2.55,1.1,3.52,3.87,2.36,6.23-1.05,2.14-4.23,3.21-6.5,1.96-1.05-.58-1.78-.51-2.7,.08-1.17,.75-2.37,1.44-3.61,2.06-1.67,.85-3.28,1.61-2.99,3.98,.11,.85-.59,1.8-1.29,2.11-2.24,.99-1.9,2.86-1.89,4.66,0,.4,0,.79,0,1.19,0,.72,.05,1.45-.01,2.18-.11,1.45,.09,2.51,1.62,3.38,1.95,1.11,2.26,4.13,.99,5.98-1.28,1.87-4.06,2.6-5.99,1.43-.77-.47-1.31-.6-2.12-.13-1.47,.86-3.05,1.56-4.53,2.41-1.41,.8-2.84,1.31-2.88,3.61-.05,2.42-2.52,3.95-4.78,3.69-2.4-.28-4.05-2.01-4.02-4.54,.01-.99-.34-1.4-1.1-1.81-1.57-.85-3.11-1.75-4.64-2.65-1.38-.81-2.58-1.41-4.3-.35-1.88,1.15-4.47,0-5.57-1.98-1.15-2.08-.76-4.5,1.28-5.75,1.37-.84,1.64-1.83,1.55-3.23-.08-1.25-.1-2.51,0-3.76,.14-1.79-.12-3.14-1.87-4.27-1.89-1.23-2.06-3.83-.83-5.67,1.32-1.98,3.78-2.78,5.88-1.6,1.2,.68,2.08,.49,3.11-.1,1.32-.76,2.61-1.55,3.97-2.23,1.6-.79,2.85-1.62,2.64-3.78-.13-1.33,1.06-2.23,2.16-2.84,.84-.47,1.02-1.05,.99-1.91-.05-1.45-.03-2.9,0-4.35,.03-1.88,.34-3.74-2.01-4.77-1.12-.49-1.43-1.93-1.25-3.13,.18-1.23-.39-1.79-1.31-2.34-1.42-.85-2.79-1.77-4.16-2.69-1.53-1.03-2.89-1.84-4.99-.88-2.1,.95-4.45-.42-5.37-2.5C-.47,4.28,.19,2.13,2.12,.81,3.99-.46,6.2-.2,7.93,1.35c1.15,1.03,1.89,2.16,1.58,3.75-.15,.79,.25,1.19,.87,1.57,1.52,.93,3.02,1.89,4.5,2.88,1.44,.97,2.71,2.17,4.69,.86,.8-.53,2.23-.47,3.03,.23,1.24,1.07,2.13,.43,3.16-.18,1.08-.64,2.17-1.27,3.27-1.86,1.73-.94,3.43-1.63,3.54-4.22,.08-2.05,2.71-3.47,4.77-3.19,2.17,.29,3.98,2.07,3.94,4.26-.03,1.28,.44,1.88,1.49,2.4,1.24,.61,2.41,1.36,3.62,2.04,1.49,.84,2.69,1.81,4.75,.59,2.16-1.27,5.09,.34,6.03,2.65Zm-2.05,1.75c.13-1.1-1.35-2.35-2.68-2.31-1.36,.03-2.1,.86-2.16,2.11-.06,1.36,.72,2.2,2.24,2.32,1.18-.25,2.41-.58,2.59-2.12Zm-2.49,20.18c1.19-.12,2.54-.76,2.45-2.31s-1.44-1.81-2.55-2.07c-1.43,.11-2.29,.76-2.28,2.08,.01,1.46,.97,2.44,2.38,2.3Zm-3.33-5.37c2.19-1.08,2.07-2.87,1.99-4.79-.06-1.45-.04-2.9,0-4.35,.02-.85-.13-1.44-1.04-1.85-1.18-.54-2.26-1.57-2.12-2.86,.24-2.29-1.23-3.02-2.81-3.85-1.11-.58-2.23-1.16-3.27-1.86-1.15-.76-2.16-1.23-3.51-.25-.86,.62-2.17,.69-3.04,.09-1.83-1.28-3.31-.4-4.84,.45-1.21,.67-2.38,1.41-3.62,2.05-1.08,.56-1.93,1.02-1.77,2.59,.12,1.21-.57,2.58-1.73,3.15-1.81,.88-1.79,2.3-1.7,3.88,.03,.59,0,1.19,0,1.78,0,.66,.05,1.32-.01,1.97-.14,1.51,.08,2.65,1.67,3.5,1.31,.7,1.93,2.2,1.79,3.72-.07,.81,.13,1.19,.79,1.55,1.73,.95,3.41,2.01,5.18,2.9,1.24,.62,2.51,1.37,3.95,.11,.7-.62,1.85-.6,2.64-.1,2.13,1.35,3.8,.35,5.52-.8,.99-.66,2.01-1.28,3.09-1.76,1.17-.52,1.76-1.22,1.57-2.55-.18-1.15,.38-2.28,1.27-2.72Zm-12.55,32.43c1.41-.01,2.11-.86,2.25-2.14-.12-1.51-.99-2.22-2.34-2.22s-2.11,.84-2.11,2.12c0,1.35,.75,2.25,2.19,2.24Zm2.22-20.15c-.03-1.5-.92-2.31-2.22-2.37-1.4-.06-2.17,.95-2.19,2.29-.03,1.3,.74,2.1,2.09,2.12,1.37,.02,2.28-.59,2.33-2.04Zm.02-36.27c-.08-1.43-.97-2.15-2.3-2.15-1.3,0-2.12,.85-2.13,2.12-.01,1.35,.77,2.23,2.2,2.25,1.45,.03,2.1-.85,2.23-2.22Zm-4.96,50.73c1.59-.81,1.71-1.95,1.61-3.4-.05-.72-.01-1.45,0-2.18-.1-2.23,.72-4.77-2.26-6.01-.47-.19-.93-1.11-.89-1.67,.15-2.58-1.78-3.29-3.52-4.22-.93-.5-1.85-1.02-2.75-1.57-1.24-.75-2.33-1.59-3.88-.35-.69,.56-2.02,.65-2.85,.08-2.03-1.4-3.54-.22-5.15,.75-1.07,.64-2.14,1.32-3.28,1.84-1.16,.53-1.74,1.24-1.58,2.58,.09,.78-.16,1.49-.99,1.97-2.49,1.46-3.13,3.74-2.72,6.47,.14,.97,.08,1.98,0,2.96-.09,1.15,.21,1.9,1.31,2.55,1.01,.6,2.44,1.36,2.31,2.69-.22,2.22,1.14,2.94,2.69,3.74,1.29,.67,2.55,1.38,3.78,2.16,1.02,.65,1.86,.94,2.97,.05,.84-.68,2.25-.77,3.03-.24,2.21,1.51,3.75,.16,5.45-.85,1.3-.77,2.61-1.55,3.97-2.22,.67-.33,.99-.64,.92-1.45-.14-1.57,.51-3.02,1.83-3.69Zm-13.4,14.76c1.45,.07,2.32-.83,2.31-2.14,0-1.24-.73-2.24-2.34-2.29-1.2,.06-1.99,.84-2.06,2.08-.08,1.34,.66,2.27,2.09,2.35Zm2.31-56.35c.03-1.29-.75-2.2-1.88-2.26-1.81,0-2.55,.95-2.56,2.22,0,1.32,.87,2.18,2.29,2.16,1.35-.02,2.13-.92,2.15-2.12Zm0,18.07c.03-1.34-.81-2.16-2.27-2.21-1.28,.06-2.15,.71-2.17,2.02-.02,1.47,.91,2.38,2.33,2.38,1.29,0,2.08-.99,2.1-2.19ZM6.82,42.01c0-1.58-.93-2.37-2.19-2.39-1.3-.02-2.24,.82-2.21,2.24,.02,1.28,.71,2.1,2.08,2.1,1.37,0,2.25-.59,2.32-1.95Zm.03-37.41c-.06-1.51-.95-2.23-2.27-2.25-1.29-.02-2.13,.82-2.15,2.09-.02,1.32,.67,2.28,2.14,2.3,1.42,.02,2.08-.88,2.29-2.14Zm.01,55.38c-.13-1.53-1-2.23-2.35-2.23-1.32,0-2.09,.84-2.1,2.12-.01,1.37,.76,2.24,2.2,2.24,1.43,0,2.06-.92,2.25-2.14Z"/><g><path class="cls-2" d="M69.72,26.8c-.16,1.35-.66,2.4-1.5,3.13s-1.96,1.1-3.35,1.1c-1.51,0-2.72-.54-3.63-1.63s-1.37-2.53-1.37-4.35v-1.23c0-1.19,.21-2.24,.64-3.14s1.03-1.6,1.81-2.08,1.68-.73,2.71-.73c1.36,0,2.45,.38,3.27,1.14s1.3,1.81,1.43,3.15h-1.7c-.15-1.02-.46-1.76-.95-2.22s-1.17-.69-2.05-.69c-1.08,0-1.92,.4-2.54,1.2-.61,.8-.92,1.93-.92,3.4v1.24c0,1.39,.29,2.5,.87,3.32s1.39,1.23,2.43,1.23c.94,0,1.66-.21,2.16-.64s.83-1.16,1-2.22h1.7Z"/><path class="cls-2" d="M73.39,22.51c.72-.88,1.66-1.33,2.81-1.33,2.01,0,3.02,1.13,3.04,3.4v6.28h-1.63v-6.29c0-.69-.16-1.19-.47-1.52s-.79-.49-1.44-.49c-.53,0-.99,.14-1.39,.42s-.71,.65-.93,1.11v6.78h-1.63v-13.5h1.63v5.14Z"/><path class="cls-2" d="M85.62,31.04c-1.29,0-2.34-.42-3.15-1.27s-1.21-1.98-1.21-3.4v-.3c0-.94,.18-1.79,.54-2.53s.86-1.32,1.51-1.74,1.35-.63,2.1-.63c1.24,0,2.2,.41,2.88,1.22s1.03,1.98,1.03,3.5v.68h-6.44c.02,.94,.3,1.69,.82,2.27s1.19,.87,2,.87c.57,0,1.06-.12,1.46-.35s.75-.54,1.05-.93l.99,.77c-.8,1.22-1.99,1.84-3.59,1.84Zm-.2-8.53c-.66,0-1.21,.24-1.65,.72s-.72,1.15-.83,2.01h4.76v-.12c-.05-.83-.27-1.47-.67-1.92s-.94-.68-1.62-.68Z"/><path class="cls-2" d="M92.74,21.36l.04,1.05c.7-.82,1.64-1.23,2.82-1.23,1.33,0,2.24,.51,2.72,1.53,.32-.46,.73-.83,1.23-1.11s1.11-.42,1.8-.42c2.09,0,3.15,1.1,3.18,3.31v6.37h-1.63v-6.28c0-.68-.16-1.19-.47-1.52s-.83-.51-1.56-.51c-.6,0-1.1,.18-1.5,.54s-.63,.85-.69,1.45v6.31h-1.63v-6.23c0-1.38-.68-2.07-2.03-2.07-1.07,0-1.8,.45-2.19,1.36v6.94h-1.63v-9.51h1.54Z"/><path class="cls-2" d="M107,18.83c0-.26,.08-.49,.24-.67s.4-.27,.72-.27,.56,.09,.72,.27,.25,.4,.25,.67-.08,.48-.25,.66-.4,.26-.72,.26-.56-.09-.72-.26-.24-.4-.24-.66Zm1.76,12.03h-1.63v-9.51h1.63v9.51Z"/><path class="cls-2" d="M115.17,29.71c.58,0,1.09-.18,1.52-.53s.67-.79,.72-1.32h1.54c-.03,.54-.22,1.06-.56,1.56s-.81,.88-1.38,1.18-1.19,.44-1.83,.44c-1.29,0-2.32-.43-3.09-1.3s-1.15-2.05-1.15-3.55v-.27c0-.93,.17-1.75,.51-2.47s.83-1.28,1.46-1.68,1.39-.6,2.25-.6c1.07,0,1.95,.32,2.66,.96s1.08,1.47,1.13,2.49h-1.54c-.05-.62-.28-1.12-.7-1.52s-.94-.59-1.55-.59c-.83,0-1.47,.3-1.92,.89s-.68,1.45-.68,2.58v.31c0,1.1,.23,1.94,.68,2.53s1.1,.89,1.93,.89Z"/><path class="cls-2" d="M126.65,30.87c-.09-.19-.17-.52-.23-1-.76,.79-1.66,1.18-2.71,1.18-.94,0-1.71-.27-2.31-.8-.6-.53-.9-1.2-.9-2.02,0-.99,.38-1.76,1.13-2.31,.75-.55,1.81-.82,3.18-.82h1.58v-.75c0-.57-.17-1.02-.51-1.36s-.84-.51-1.5-.51c-.58,0-1.07,.15-1.46,.44s-.59,.65-.59,1.06h-1.63c0-.47,.17-.93,.5-1.38,.34-.44,.79-.79,1.37-1.05s1.21-.39,1.9-.39c1.1,0,1.95,.27,2.58,.82s.94,1.3,.97,2.26v4.38c0,.87,.11,1.57,.33,2.08v.14h-1.71Zm-2.7-1.24c.51,0,.99-.13,1.45-.4s.79-.61,.99-1.03v-1.95h-1.27c-1.99,0-2.99,.58-2.99,1.75,0,.51,.17,.91,.51,1.2s.78,.43,1.31,.43Z"/><path class="cls-2" d="M132.34,30.87h-1.63v-13.5h1.63v13.5Z"/></g><g><path class="cls-2" d="M53.12,53.69c-.16,1.35-.66,2.4-1.5,3.13s-1.96,1.1-3.35,1.1c-1.51,0-2.72-.54-3.63-1.63s-1.37-2.53-1.37-4.35v-1.23c0-1.19,.21-2.24,.64-3.14s1.03-1.6,1.81-2.08,1.68-.73,2.71-.73c1.36,0,2.45,.38,3.27,1.14s1.3,1.81,1.43,3.15h-1.7c-.15-1.02-.46-1.76-.95-2.22s-1.17-.69-2.05-.69c-1.08,0-1.92,.4-2.54,1.2-.61,.8-.92,1.93-.92,3.4v1.24c0,1.39,.29,2.5,.87,3.32,.58,.82,1.39,1.23,2.43,1.23,.94,0,1.66-.21,2.16-.64s.83-1.17,1-2.22h1.7Z"/><path class="cls-2" d="M54.74,52.9c0-.93,.18-1.77,.55-2.51s.88-1.32,1.53-1.72,1.4-.61,2.24-.61c1.29,0,2.34,.45,3.14,1.34s1.2,2.09,1.2,3.58v.11c0,.93-.18,1.76-.53,2.49s-.86,1.31-1.52,1.72-1.42,.62-2.27,.62c-1.29,0-2.33-.45-3.13-1.34s-1.2-2.08-1.2-3.56v-.11Zm1.63,.19c0,1.05,.24,1.9,.73,2.54s1.14,.96,1.96,.96,1.48-.32,1.97-.97,.73-1.55,.73-2.72c0-1.04-.25-1.89-.74-2.54s-1.15-.97-1.97-.97-1.45,.32-1.94,.96-.74,1.55-.74,2.74Z"/><path class="cls-2" d="M66.96,48.24l.04,1.05c.7-.82,1.64-1.23,2.82-1.23,1.33,0,2.24,.51,2.72,1.53,.32-.46,.73-.83,1.23-1.11s1.11-.42,1.8-.42c2.09,0,3.15,1.1,3.18,3.31v6.37h-1.63v-6.28c0-.68-.16-1.19-.47-1.52s-.83-.51-1.56-.51c-.6,0-1.1,.18-1.5,.54s-.63,.84-.69,1.45v6.31h-1.63v-6.23c0-1.38-.68-2.07-2.03-2.07-1.07,0-1.8,.45-2.19,1.36v6.94h-1.63v-9.51h1.54Z"/><path class="cls-2" d="M89.24,53.1c0,1.45-.33,2.61-.99,3.5s-1.56,1.33-2.69,1.33-2.06-.37-2.72-1.1v4.58h-1.63v-13.17h1.49l.08,1.05c.66-.82,1.58-1.23,2.76-1.23s2.05,.43,2.71,1.29,1,2.06,1,3.59v.15Zm-1.63-.18c0-1.07-.23-1.92-.69-2.54s-1.08-.93-1.88-.93c-.98,0-1.72,.44-2.21,1.31v4.54c.49,.87,1.23,1.3,2.23,1.3,.78,0,1.4-.31,1.86-.93s.69-1.54,.69-2.76Z"/><path class="cls-2" d="M97.18,57.75c-.09-.19-.17-.52-.23-1-.76,.79-1.66,1.18-2.71,1.18-.94,0-1.71-.26-2.31-.79s-.9-1.2-.9-2.02c0-.99,.38-1.76,1.13-2.31s1.81-.82,3.18-.82h1.58v-.75c0-.57-.17-1.02-.51-1.36s-.84-.51-1.5-.51c-.58,0-1.07,.15-1.46,.44s-.59,.65-.59,1.06h-1.63c0-.47,.17-.93,.51-1.38s.79-.79,1.37-1.05,1.21-.39,1.9-.39c1.1,0,1.95,.27,2.58,.82s.94,1.3,.97,2.26v4.38c0,.87,.11,1.57,.33,2.08v.14h-1.71Zm-2.7-1.24c.51,0,.99-.13,1.45-.4s.79-.61,.99-1.03v-1.95h-1.27c-1.99,0-2.99,.58-2.99,1.75,0,.51,.17,.91,.51,1.2s.78,.43,1.31,.43Z"/><path class="cls-2" d="M102.64,48.24l.05,1.2c.73-.91,1.68-1.37,2.85-1.37,2.01,0,3.02,1.13,3.04,3.4v6.28h-1.63v-6.29c0-.69-.16-1.19-.47-1.52-.31-.33-.79-.49-1.44-.49-.53,0-.99,.14-1.39,.42s-.71,.65-.93,1.11v6.78h-1.63v-9.51h1.54Z"/><path class="cls-2" d="M114.14,55.37l2.21-7.13h1.74l-3.82,10.98c-.59,1.58-1.53,2.37-2.82,2.37l-.31-.03-.61-.11v-1.32l.44,.04c.55,0,.98-.11,1.29-.33,.31-.22,.56-.63,.76-1.22l.36-.97-3.39-9.4h1.78l2.37,7.13Z"/></g></svg>