<?xml version="1.0" encoding="UTF-8"?><svg id="Ebene_1" xmlns="http://www.w3.org/2000/svg" viewBox="0 0 236.45 299.81"><path d="M155.09,204.06c0,2.73,.17,5.48-.04,8.2-.41,5.46,.35,9.46,6.11,12.75,7.35,4.2,8.52,15.58,3.74,22.55-4.82,7.04-15.3,9.8-22.58,5.4-2.91-1.76-4.95-2.27-7.99-.48-5.55,3.26-11.47,5.87-17.06,9.07-5.3,3.03-10.7,4.92-10.87,13.59-.17,9.14-9.52,14.89-18.01,13.92-9.06-1.04-15.28-7.58-15.16-17.13,.04-3.72-1.28-5.27-4.14-6.82-5.91-3.19-11.71-6.6-17.5-10-5.2-3.06-9.7-5.31-16.22-1.33-7.08,4.33-16.86,.03-21-7.48-4.32-7.83-2.85-16.96,4.8-21.68,5.15-3.17,6.19-6.9,5.84-12.18-.31-4.7-.37-9.47,0-14.16,.54-6.74-.48-11.84-7.05-16.11-7.12-4.63-7.76-14.43-3.14-21.37,4.98-7.47,14.26-10.48,22.15-6.03,4.52,2.55,7.85,1.85,11.71-.37,4.96-2.86,9.84-5.87,14.97-8.4,6.04-2.98,10.75-6.1,9.97-14.25-.48-5.03,4.01-8.39,8.14-10.69,3.15-1.76,3.86-3.96,3.76-7.19-.18-5.46-.13-10.94-.03-16.4,.13-7.09,1.28-14.11-7.55-17.96-4.23-1.85-5.4-7.26-4.73-11.81,.68-4.63-1.46-6.74-4.95-8.82-5.34-3.18-10.52-6.66-15.68-10.13-5.78-3.89-10.9-6.93-18.81-3.33-7.91,3.6-16.78-1.57-20.24-9.43-3.42-7.77-.95-15.87,6.35-20.84,7.03-4.79,15.36-3.8,21.87,2.04,4.34,3.9,7.13,8.13,5.98,14.14-.57,2.96,.95,4.5,3.28,5.93,5.73,3.51,11.39,7.13,16.98,10.86,5.44,3.63,10.2,8.18,17.69,3.24,3-1.98,8.4-1.76,11.45,.87,4.68,4.04,8.03,1.61,11.89-.68,4.06-2.42,8.17-4.77,12.33-7.02,6.54-3.54,12.94-6.15,13.33-15.91,.3-7.73,10.2-13.09,18-12.04,8.2,1.1,15.02,7.82,14.85,16.07-.1,4.84,1.66,7.09,5.6,9.03,4.68,2.3,9.1,5.12,13.66,7.69,5.62,3.17,10.13,6.82,17.92,2.24,8.15-4.8,19.19,1.27,22.74,9.98,3.37,8.27-.88,18.08-10.09,21.78-2.72,1.09-3.37,2.26-3.36,4.71,.04,8.95,.11,17.9-.04,26.85-.05,2.92,.96,3.89,3.77,5.1,9.62,4.15,13.28,14.57,8.89,23.5-3.96,8.08-15.95,12.09-24.51,7.39-3.98-2.18-6.71-1.91-10.18,.31-4.4,2.8-8.95,5.42-13.61,7.78-6.29,3.19-12.37,6.07-11.26,15.02,.4,3.21-2.23,6.8-4.88,7.97-8.46,3.74-7.18,10.76-7.11,17.57,.01,1.49,0,2.98,0,4.47Zm-8.81-.27c-.38-8.42,2.71-18-8.52-22.64-1.76-.73-3.49-4.2-3.37-6.3,.57-9.71-6.7-12.4-13.28-15.91-3.51-1.87-6.97-3.84-10.36-5.9-4.65-2.83-8.78-6-14.6-1.32-2.61,2.1-7.62,2.44-10.73,.3-7.66-5.28-13.33-.81-19.41,2.83-4.05,2.43-8.07,4.97-12.34,6.94-4.36,2.01-6.57,4.67-5.97,9.71,.35,2.94-.62,5.6-3.73,7.43-9.4,5.52-11.8,14.08-10.26,24.39,.54,3.64,.31,7.45,.03,11.15-.33,4.34,.8,7.16,4.94,9.61,3.8,2.25,9.19,5.13,8.69,10.14-.83,8.35,4.3,11.08,10.14,14.08,4.86,2.5,9.63,5.2,14.24,8.13,3.83,2.44,7.01,3.55,11.21,.17,3.17-2.55,8.49-2.92,11.44-.9,8.34,5.71,14.12,.62,20.53-3.18,4.91-2.92,9.84-5.84,14.97-8.36,2.54-1.25,3.73-2.43,3.46-5.47-.52-5.9,1.93-11.38,6.89-13.91,5.98-3.05,6.46-7.36,6.06-12.8-.2-2.72-.03-5.46-.02-8.2Zm-52.01-101.8c0,2.48,.19,4.98-.04,7.45-.52,5.68,.32,10,6.28,13.19,4.92,2.63,7.26,8.29,6.75,14.03-.27,3.06,.5,4.5,2.97,5.85,6.54,3.58,12.86,7.59,19.52,10.93,4.68,2.34,9.49,5.18,14.89,.41,2.64-2.33,6.96-2.28,9.97-.36,8.02,5.1,14.3,1.33,20.81-3,3.72-2.47,7.59-4.82,11.66-6.63,4.42-1.96,6.66-4.61,5.9-9.64-.65-4.34,1.45-8.59,4.8-10.24,8.24-4.06,7.8-10.83,7.5-18.04-.23-5.45-.16-10.93,0-16.39,.09-3.23-.48-5.42-3.93-6.99-4.44-2.01-8.51-5.93-8.01-10.8,.9-8.64-4.65-11.39-10.59-14.49-4.18-2.19-8.39-4.39-12.31-7-4.35-2.89-8.13-4.65-13.24-.97-3.23,2.33-8.18,2.61-11.46,.33-6.92-4.82-12.46-1.5-18.26,1.69-4.57,2.52-8.99,5.33-13.63,7.72-4.08,2.1-7.27,3.83-6.69,9.76,.44,4.56-2.16,9.74-6.53,11.86-6.8,3.3-6.73,8.67-6.39,14.62,.13,2.23,.02,4.47,.02,6.7Zm115.71-25.83c4.45-.95,9.09-2.19,9.78-7.97,.5-4.15-5.09-8.85-10.09-8.73-5.12,.12-7.94,3.27-8.13,7.94-.22,5.13,2.72,8.28,8.44,8.76Zm0,51.57c-5.38,.4-8.63,2.86-8.58,7.84,.05,5.52,3.64,9.21,8.96,8.67,4.5-.46,9.57-2.87,9.25-8.72-.31-5.85-5.41-6.83-9.63-7.79ZM37.71,29.44c-.24-5.67-3.57-8.39-8.56-8.49-4.88-.09-8.03,3.09-8.11,7.88-.08,4.96,2.54,8.6,8.06,8.66,5.37,.06,7.85-3.3,8.61-8.05Zm121.22,4.11c-.32-5.39-3.66-8.1-8.68-8.12-4.89-.02-7.97,3.2-8.01,8-.04,5.09,2.89,8.4,8.29,8.5,5.48,.1,7.91-3.21,8.4-8.38ZM37.62,170.46c0-5.95-3.49-8.93-8.26-9.02-4.89-.09-8.45,3.08-8.34,8.45,.1,4.81,2.7,7.91,7.85,7.93,5.16,.03,8.48-2.25,8.76-7.36Zm121.22-.17c-.11-5.68-3.46-8.72-8.36-8.92-5.27-.21-8.17,3.6-8.27,8.62-.1,4.89,2.79,7.9,7.86,7.97,5.18,.07,8.59-2.22,8.77-7.68ZM37.77,238.19c-.5-5.75-3.78-8.4-8.86-8.38-4.98,.02-7.89,3.18-7.92,8.01-.04,5.15,2.87,8.42,8.28,8.43,5.4,0,7.77-3.46,8.5-8.05Zm121.21,0c-.47-5.72-3.74-8.38-8.82-8.38-4.99,0-7.94,3.16-7.94,7.99,0,5.08,2.82,8.49,8.26,8.45,5.32-.04,7.95-3.24,8.5-8.05Zm-69.38,25.57c-4.55,.24-7.51,3.16-7.78,7.83-.29,5.06,2.49,8.57,7.89,8.84,5.45,.28,8.73-3.12,8.72-8.05-.02-4.68-2.75-8.43-8.82-8.62Zm1.74-204.27c-6.82-.03-9.63,3.58-9.66,8.36-.03,4.96,3.29,8.23,8.65,8.15,5.09-.07,8.02-3.48,8.1-8,.09-4.88-2.84-8.29-7.09-8.52Zm-1.51,68.3c-4.81,.24-8.09,2.69-8.17,7.63-.09,5.53,3.43,8.95,8.81,8.96,4.85,0,7.83-3.74,7.93-8.26,.11-5.04-3.05-8.13-8.56-8.33Z"/><path d="M61.32,207.21c-.21-16.61,2.48-29.56,17.86-35.72,13.8-5.53,31.01,1.77,34.18,14.67,.48,1.96,3.09,5.73-1.49,6.52-2.86,.49-6.03,1.27-7.61-3.45-3.01-8.99-8.37-12.3-16.56-11.76-7.47,.5-13.59,5.78-15.63,13.88-2.35,9.32-2.41,18.72,.12,28.02,2.22,8.17,7.74,12.88,15.1,13.36,8.83,.57,13.45-2.06,16.78-11.29,1.81-5.02,5.36-4.11,8.26-3.34,3.51,.94,1.35,4.28,.8,6.26-2.73,9.78-12.16,15.88-24.26,16.07-12.29,.2-21.39-5.92-25.25-17.04-2.07-5.95-2.64-12.1-2.28-16.19Z"/><path d="M130.4,101.52c-1.57,6.82,1,12.55,3.88,18.33,3.25,6.52,8.56,9.95,15.48,9.55,7.22-.42,13.78-2.96,15.08-11.58,.79-5.21,4.82-4.66,8.01-3.87,4.1,1.02,1.88,4.37,1.2,6.64-3.94,13.14-18.63,20.25-32.58,15.52-11.7-3.96-19.03-11.6-20.6-24.52-1.16-9.55-.81-18.81,2.26-27.84,3.56-10.46,15.03-17.62,27.57-17.71,10.94-.08,19.68,6.01,23.22,16.4,.77,2.26,3.03,5.63-.73,6.71-3.18,.91-7.47,1.79-8.5-4.02-1.1-6.21-5.15-9.98-11.62-10.68-7.44-.81-13.99,.69-17.79,7.89-3.18,6.01-7,11.93-4.88,19.16Z"/></svg>