<?xml version="1.0" encoding="UTF-8"?><svg id="Ebene_1" xmlns="http://www.w3.org/2000/svg" viewBox="0 0 90.18 89.49"><defs><style>.cls-1{fill:#a290bc;}</style></defs><path class="cls-1" d="M2.03,53.19H13.25v-4.73H3.04c-.9-2.03-1.77-4-3.04-6.87H13.13v-5.36H1.27v-4.87c.69-.69,1.53-1.51,2.39-2.35H13.25c.42-5.02,.02-10.14,.24-15.5h15.48V3.24c2.23-.97,4.37-1.89,7.49-3.24V13.08h5.1V2.02c3.11-2.32,5.11-.81,7.29,1.58V12.93h5.1V1.25h4.97c.65,.65,1.49,1.47,2.63,2.6V13.21h15.42v15.35h9.9c1.07,1.13,2.03,2.15,3.32,3.52-.88,1.23-1.68,2.33-2.63,3.65h-10.02c-.12,1.85-.22,3.43-.34,5.34h11.7q.44,4.17-1.83,7.2h-9.53v5.03h12.57c-.69,2.78-1.18,4.78-1.71,6.89h-10.88v15.84h-15.82v8.9c-1.87,3.25-4.08,4.02-7.2,3.38v-11.76c-1.86-.13-3.46-.24-5.41-.37v10.37c-2.06,.87-4.07,1.72-6.97,2.94v-12.95h-5.42v11.16c-3.6,1.9-5.53,.3-7.3-1.84v-9.32H13.67v-15.63H4.56c-3.19-2.19-4.93-4.22-2.54-7.71Zm57.21,5.41V30.74c-4.96,0-9.64-.06-14.32,.02-4.6,.08-9.24-.35-13.47,.2v27.64h27.78Z"/></svg>