<?xml version="1.0" encoding="UTF-8"?><svg id="Ebene_1" xmlns="http://www.w3.org/2000/svg" viewBox="0 0 539.11 145.96"><defs><style>.cls-1{fill:#a290bc;}.cls-2{fill:#1d1d1b;}</style></defs><path class="cls-1" d="M3.31,86.76H21.61v-7.71H4.95c-1.46-3.31-2.88-6.53-4.95-11.21H21.41v-8.74H2.07v-7.94c1.13-1.12,2.5-2.46,3.89-3.84h15.65c.68-8.18,.04-16.54,.38-25.29h25.24V5.28c3.64-1.57,7.13-3.08,12.21-5.28V21.34h8.32V3.29c5.08-3.78,8.33-1.32,11.89,2.58v15.22h8.32V2.05h8.11c1.07,1.05,2.43,2.4,4.3,4.24v15.27h25.15v25.03h16.15c1.74,1.85,3.31,3.51,5.41,5.75-1.44,2-2.74,3.8-4.29,5.96h-16.34c-.19,3.02-.35,5.6-.55,8.72h19.08q.72,6.79-2.98,11.74h-15.55v8.21h20.51c-1.12,4.53-1.93,7.79-2.78,11.24h-17.74v25.83h-25.8v14.51c-3.05,5.31-6.65,6.55-11.75,5.52v-19.18c-3.04-.21-5.64-.39-8.83-.61v16.91c-3.37,1.42-6.64,2.8-11.37,4.8v-21.13h-8.84v18.21c-5.87,3.1-9.02,.49-11.91-2.99v-15.21H22.31v-25.5H7.44c-5.2-3.58-8.04-6.89-4.13-12.58Zm93.32,8.82V50.15c-8.1,0-15.73-.11-23.35,.03-7.5,.13-15.07-.58-21.97,.33v45.08h45.32Z"/><g><path class="cls-2" d="M170.67,74.42c-5.39-1.55-9.31-3.45-11.76-5.71-2.45-2.26-3.68-5.04-3.68-8.36,0-3.75,1.5-6.85,4.5-9.31,3-2.45,6.9-3.68,11.7-3.68,3.27,0,6.19,.63,8.75,1.9,2.56,1.27,4.55,3.01,5.95,5.23,1.41,2.22,2.11,4.66,2.11,7.3h-6.31c0-2.89-.92-5.16-2.75-6.81-1.83-1.65-4.42-2.48-7.75-2.48-3.1,0-5.51,.68-7.25,2.05-1.73,1.37-2.6,3.26-2.6,5.69,0,1.95,.82,3.59,2.47,4.93,1.65,1.34,4.45,2.57,8.41,3.69,3.96,1.11,7.05,2.34,9.29,3.68,2.23,1.34,3.89,2.91,4.97,4.7,1.08,1.79,1.62,3.89,1.62,6.31,0,3.86-1.5,6.95-4.51,9.27-3.01,2.32-7.03,3.48-12.07,3.48-3.27,0-6.33-.63-9.16-1.88-2.84-1.25-5.02-2.97-6.56-5.15-1.54-2.18-2.31-4.66-2.31-7.43h6.31c0,2.88,1.06,5.15,3.19,6.82,2.13,1.67,4.97,2.5,8.52,2.5,3.31,0,5.86-.68,7.62-2.03s2.65-3.2,2.65-5.53-.82-4.14-2.45-5.41c-1.64-1.28-4.6-2.54-8.9-3.78Z"/><path class="cls-2" d="M217.29,95.65c-.35-.7-.63-1.94-.85-3.73-2.81,2.92-6.17,4.38-10.08,4.38-3.49,0-6.35-.99-8.59-2.96-2.24-1.97-3.35-4.48-3.35-7.51,0-3.69,1.4-6.55,4.2-8.59,2.8-2.04,6.74-3.06,11.83-3.06h5.89v-2.78c0-2.12-.63-3.8-1.9-5.05-1.27-1.25-3.13-1.88-5.59-1.88-2.16,0-3.97,.55-5.43,1.64-1.46,1.09-2.19,2.41-2.19,3.96h-6.08c0-1.77,.63-3.47,1.88-5.12,1.25-1.65,2.95-2.95,5.1-3.91,2.15-.96,4.51-1.44,7.08-1.44,4.08,0,7.27,1.02,9.59,3.06,2.31,2.04,3.51,4.85,3.6,8.42v16.29c0,3.25,.41,5.83,1.24,7.75v.52h-6.35Zm-10.04-4.61c1.9,0,3.7-.49,5.4-1.47s2.93-2.26,3.7-3.83v-7.26h-4.74c-7.42,0-11.12,2.17-11.12,6.51,0,1.9,.63,3.38,1.9,4.45,1.26,1.07,2.89,1.6,4.87,1.6Z"/><path class="cls-2" d="M243.07,87.44l8.77-27.19h6.18l-12.69,35.4h-4.61l-12.83-35.4h6.18l9,27.19Z"/><path class="cls-2" d="M278.11,96.3c-4.8,0-8.7-1.58-11.71-4.73-3.01-3.15-4.51-7.37-4.51-12.64v-1.11c0-3.51,.67-6.65,2.01-9.41,1.34-2.76,3.22-4.92,5.63-6.48,2.41-1.56,5.02-2.34,7.83-2.34,4.6,0,8.18,1.52,10.73,4.55,2.55,3.03,3.83,7.37,3.83,13.02v2.52h-23.98c.09,3.49,1.11,6.31,3.06,8.46,1.95,2.15,4.43,3.22,7.44,3.22,2.14,0,3.95-.44,5.43-1.31,1.48-.87,2.78-2.03,3.89-3.47l3.7,2.88c-2.97,4.56-7.42,6.84-13.35,6.84Zm-.75-31.73c-2.44,0-4.49,.89-6.15,2.67-1.66,1.78-2.68,4.27-3.08,7.48h17.73v-.46c-.17-3.08-1-5.46-2.49-7.15-1.48-1.69-3.49-2.54-6.02-2.54Z"/><path class="cls-2" d="M323.19,95.65h-6.28V48.02h6.28v47.63Z"/><path class="cls-2" d="M339.45,60.25l.2,4.45c2.7-3.4,6.24-5.1,10.6-5.1,7.48,0,11.25,4.22,11.32,12.66v23.39h-6.05v-23.42c-.02-2.55-.61-4.44-1.75-5.66-1.15-1.22-2.93-1.83-5.35-1.83-1.96,0-3.69,.52-5.17,1.57s-2.64,2.42-3.47,4.12v25.22h-6.05V60.25h5.72Z"/><path class="cls-2" d="M391.3,86.26c0-1.64-.62-2.91-1.85-3.81-1.23-.9-3.38-1.68-6.44-2.34-3.06-.65-5.5-1.44-7.3-2.36-1.8-.92-3.13-2.01-3.99-3.27s-1.29-2.77-1.29-4.52c0-2.9,1.23-5.35,3.68-7.36,2.45-2.01,5.59-3.01,9.41-3.01,4.01,0,7.27,1.04,9.77,3.11,2.5,2.07,3.75,4.72,3.75,7.95h-6.09c0-1.66-.7-3.09-2.11-4.29-1.41-1.2-3.18-1.8-5.32-1.8s-3.93,.48-5.17,1.44c-1.24,.96-1.86,2.21-1.86,3.76,0,1.46,.58,2.56,1.73,3.3,1.16,.74,3.24,1.45,6.26,2.13s5.47,1.48,7.34,2.42c1.88,.94,3.27,2.07,4.17,3.39,.91,1.32,1.36,2.93,1.36,4.83,0,3.16-1.26,5.7-3.79,7.61-2.53,1.91-5.81,2.86-9.85,2.86-2.84,0-5.34-.5-7.52-1.5-2.18-1-3.89-2.4-5.12-4.2-1.23-1.8-1.85-3.75-1.85-5.84h6.05c.11,2.03,.92,3.64,2.44,4.83,1.52,1.19,3.52,1.78,6,1.78,2.29,0,4.13-.46,5.51-1.39,1.38-.93,2.08-2.16,2.08-3.71Z"/><path class="cls-2" d="M413.45,51.68v8.57h6.61v4.68h-6.61v21.98c0,1.42,.29,2.48,.88,3.19,.59,.71,1.59,1.06,3.01,1.06,.7,0,1.66-.13,2.88-.39v4.88c-1.59,.43-3.14,.65-4.65,.65-2.71,0-4.74-.82-6.12-2.45-1.38-1.64-2.06-3.96-2.06-6.97v-21.95h-6.44v-4.68h6.44v-8.57h6.05Z"/><path class="cls-2" d="M444.24,65.68c-.92-.15-1.91-.23-2.98-.23-3.97,0-6.66,1.69-8.08,5.07v25.12h-6.05V60.25h5.89l.1,4.09c1.98-3.16,4.8-4.74,8.44-4.74,1.18,0,2.07,.15,2.68,.46v5.63Z"/><path class="cls-2" d="M471.65,92.15c-2.36,2.77-5.81,4.15-10.37,4.15-3.77,0-6.65-1.1-8.62-3.29-1.97-2.19-2.97-5.44-2.99-9.73v-23.03h6.05v22.87c0,5.37,2.18,8.05,6.54,8.05,4.62,0,7.7-1.72,9.22-5.17v-25.75h6.05v35.4h-5.76l-.13-3.5Z"/><path class="cls-2" d="M500.93,91.36c2.16,0,4.04-.65,5.66-1.96s2.51-2.94,2.68-4.91h5.72c-.11,2.03-.81,3.96-2.09,5.79-1.29,1.83-3,3.29-5.15,4.38-2.15,1.09-4.42,1.64-6.82,1.64-4.82,0-8.65-1.61-11.5-4.83-2.85-3.22-4.27-7.62-4.27-13.2v-1.01c0-3.45,.63-6.51,1.9-9.19,1.26-2.68,3.08-4.77,5.45-6.25,2.37-1.48,5.16-2.22,8.39-2.22,3.97,0,7.27,1.19,9.9,3.57,2.63,2.38,4.03,5.46,4.2,9.26h-5.72c-.18-2.29-1.04-4.17-2.6-5.64-1.56-1.47-3.48-2.21-5.77-2.21-3.08,0-5.46,1.11-7.15,3.32-1.69,2.21-2.54,5.42-2.54,9.6v1.14c0,4.08,.84,7.22,2.52,9.42,1.68,2.2,4.08,3.3,7.2,3.3Z"/><path class="cls-2" d="M530.01,51.68v8.57h6.61v4.68h-6.61v21.98c0,1.42,.29,2.48,.88,3.19,.59,.71,1.59,1.06,3.01,1.06,.7,0,1.66-.13,2.88-.39v4.88c-1.59,.43-3.14,.65-4.65,.65-2.71,0-4.74-.82-6.12-2.45-1.38-1.64-2.06-3.96-2.06-6.97v-21.95h-6.44v-4.68h6.44v-8.57h6.05Z"/></g></svg>