<?xml version="1.0" encoding="UTF-8"?><svg id="Ebene_1" xmlns="http://www.w3.org/2000/svg" viewBox="0 0 534.79 89.49"><defs><style>.cls-1{fill:#a290bc;}.cls-2{fill:#1d1d1b;}</style></defs><path class="cls-1" d="M211.81,53.19h11.22v-4.73h-10.21c-.9-2.03-1.77-4-3.04-6.87h13.13v-5.36h-11.86v-4.87c.69-.69,1.53-1.51,2.39-2.35h9.59c.42-5.02,.02-10.14,.24-15.5h15.48V3.24c2.23-.97,4.37-1.89,7.49-3.24V13.08h5.1V2.02c3.11-2.32,5.11-.81,7.29,1.58V12.93h5.1V1.25h4.97c.65,.65,1.49,1.47,2.63,2.6V13.21h15.42v15.35h9.9c1.07,1.13,2.03,2.15,3.32,3.52-.88,1.23-1.68,2.33-2.63,3.65h-10.02c-.12,1.85-.22,3.43-.34,5.34h11.7q.44,4.17-1.83,7.2h-9.53v5.03h12.57c-.69,2.78-1.18,4.78-1.71,6.89h-10.88v15.84h-15.82v8.9c-1.87,3.25-4.08,4.02-7.2,3.38v-11.76c-1.86-.13-3.46-.24-5.41-.37v10.37c-2.06,.87-4.07,1.72-6.97,2.94v-12.95h-5.42v11.16c-3.6,1.9-5.53,.3-7.3-1.84v-9.32h-15.72v-15.63h-9.11c-3.19-2.19-4.93-4.22-2.54-7.71Zm57.21,5.41V30.74c-4.96,0-9.64-.06-14.32,.02-4.6,.08-9.24-.35-13.47,.2v27.64h27.78Z"/><g><path class="cls-2" d="M319.61,44.26c-3.15-.99-5.44-2.21-6.87-3.66-1.43-1.45-2.15-3.24-2.15-5.37,0-2.41,.88-4.4,2.63-5.97,1.75-1.58,4.03-2.36,6.83-2.36,1.91,0,3.61,.41,5.11,1.22,1.5,.81,2.66,1.93,3.48,3.36s1.23,2.99,1.23,4.68h-3.69c0-1.85-.54-3.31-1.6-4.37-1.07-1.06-2.58-1.59-4.53-1.59-1.81,0-3.22,.44-4.23,1.31s-1.52,2.09-1.52,3.65c0,1.25,.48,2.3,1.44,3.17,.96,.86,2.6,1.65,4.91,2.37,2.31,.72,4.12,1.5,5.43,2.36,1.31,.86,2.27,1.87,2.9,3.01,.63,1.15,.95,2.5,.95,4.05,0,2.48-.88,4.46-2.64,5.95-1.76,1.49-4.11,2.24-7.05,2.24-1.91,0-3.69-.4-5.35-1.21-1.66-.81-2.93-1.91-3.83-3.31-.9-1.4-1.35-2.99-1.35-4.77h3.69c0,1.85,.62,3.31,1.86,4.38,1.24,1.07,2.9,1.61,4.98,1.61,1.94,0,3.42-.43,4.45-1.3,1.03-.87,1.55-2.05,1.55-3.55s-.48-2.66-1.43-3.47c-.96-.82-2.69-1.63-5.2-2.43Z"/><path class="cls-2" d="M346.84,57.88c-.2-.45-.37-1.25-.5-2.39-1.64,1.88-3.6,2.81-5.88,2.81-2.04,0-3.71-.63-5.02-1.9s-1.96-2.87-1.96-4.82c0-2.37,.82-4.2,2.46-5.51s3.94-1.96,6.91-1.96h3.44v-1.79c0-1.36-.37-2.44-1.11-3.24-.74-.81-1.83-1.21-3.27-1.21-1.26,0-2.32,.35-3.17,1.05-.85,.7-1.28,1.55-1.28,2.54h-3.55c0-1.13,.37-2.23,1.1-3.29,.73-1.06,1.73-1.89,2.98-2.51,1.25-.62,2.63-.92,4.14-.92,2.38,0,4.25,.65,5.6,1.96,1.35,1.31,2.05,3.11,2.1,5.41v10.46c0,2.09,.24,3.75,.73,4.98v.34h-3.71Zm-5.87-2.96c1.11,0,2.16-.31,3.15-.94,.99-.63,1.71-1.45,2.16-2.46v-4.66h-2.77c-4.33,0-6.5,1.39-6.5,4.18,0,1.22,.37,2.17,1.11,2.86s1.69,1.03,2.85,1.03Z"/><path class="cls-2" d="M361.9,52.61l5.12-17.45h3.61l-7.41,22.72h-2.69l-7.49-22.72h3.61l5.25,17.45Z"/><path class="cls-2" d="M382.36,58.3c-2.8,0-5.08-1.01-6.84-3.03s-2.64-4.73-2.64-8.12v-.71c0-2.25,.39-4.27,1.17-6.04,.78-1.77,1.88-3.16,3.29-4.16,1.41-1,2.93-1.5,4.58-1.5,2.69,0,4.78,.97,6.27,2.92,1.49,1.95,2.24,4.73,2.24,8.36v1.62h-14c.05,2.24,.65,4.05,1.79,5.43,1.14,1.38,2.59,2.07,4.35,2.07,1.25,0,2.3-.28,3.17-.84,.87-.56,1.62-1.3,2.27-2.23l2.16,1.85c-1.73,2.93-4.33,4.39-7.79,4.39Zm-.44-20.37c-1.43,0-2.62,.57-3.59,1.71-.97,1.14-1.57,2.74-1.8,4.8h10.36v-.29c-.1-1.97-.59-3.5-1.45-4.59-.87-1.08-2.04-1.63-3.52-1.63Z"/><path class="cls-2" d="M408.69,57.88h-3.67V27.31h3.67v30.57Z"/><path class="cls-2" d="M418.18,35.16l.11,2.86c1.58-2.18,3.64-3.28,6.19-3.28,4.37,0,6.57,2.71,6.61,8.13v15.01h-3.54v-15.03c-.01-1.64-.35-2.85-1.02-3.63-.67-.78-1.71-1.18-3.12-1.18-1.15,0-2.15,.34-3.02,1.01-.87,.67-1.54,1.55-2.03,2.65v16.19h-3.54v-22.72h3.34Z"/><path class="cls-2" d="M448.47,51.86c0-1.05-.36-1.87-1.08-2.45-.72-.58-1.97-1.08-3.76-1.5-1.79-.42-3.21-.92-4.26-1.51s-1.83-1.29-2.33-2.1c-.5-.81-.75-1.78-.75-2.9,0-1.86,.72-3.44,2.15-4.72,1.43-1.29,3.26-1.93,5.49-1.93,2.34,0,4.24,.67,5.7,1.99,1.46,1.33,2.19,3.03,2.19,5.1h-3.55c0-1.06-.41-1.98-1.23-2.75-.82-.77-1.86-1.15-3.1-1.15s-2.29,.31-3.02,.92c-.73,.62-1.09,1.42-1.09,2.41,0,.94,.34,1.65,1.01,2.12s1.89,.93,3.66,1.36c1.76,.43,3.19,.95,4.29,1.55,1.1,.6,1.91,1.33,2.44,2.17,.53,.85,.79,1.88,.79,3.1,0,2.03-.74,3.66-2.22,4.88-1.48,1.22-3.39,1.84-5.75,1.84-1.66,0-3.12-.32-4.39-.97s-2.27-1.54-2.99-2.7c-.72-1.15-1.08-2.4-1.08-3.75h3.53c.06,1.3,.54,2.33,1.42,3.1,.88,.76,2.05,1.14,3.51,1.14,1.34,0,2.41-.3,3.22-.89,.81-.6,1.21-1.39,1.21-2.38Z"/><path class="cls-2" d="M461.4,29.66v5.5h3.86v3h-3.86v14.11c0,.91,.17,1.59,.52,2.05s.93,.68,1.76,.68c.41,0,.97-.08,1.68-.25v3.13c-.93,.28-1.83,.42-2.71,.42-1.58,0-2.77-.53-3.57-1.58s-1.2-2.54-1.2-4.47v-14.09h-3.76v-3h3.76v-5.5h3.54Z"/><path class="cls-2" d="M479.38,38.65c-.54-.1-1.12-.15-1.74-.15-2.32,0-3.89,1.08-4.72,3.25v16.12h-3.54v-22.72h3.44l.06,2.62c1.16-2.03,2.8-3.04,4.93-3.04,.69,0,1.21,.1,1.57,.29v3.61Z"/><path class="cls-2" d="M495.39,55.64c-1.38,1.78-3.4,2.67-6.06,2.67-2.2,0-3.88-.7-5.03-2.11-1.15-1.41-1.74-3.49-1.75-6.25v-14.78h3.53v14.68c0,3.44,1.27,5.17,3.82,5.17,2.7,0,4.5-1.11,5.39-3.32v-16.52h3.53v22.72h-3.36l-.08-2.25Z"/><path class="cls-2" d="M512.49,55.13c1.26,0,2.36-.42,3.31-1.26s1.46-1.89,1.57-3.15h3.34c-.06,1.3-.47,2.54-1.22,3.72s-1.75,2.11-3.01,2.81c-1.25,.7-2.58,1.05-3.98,1.05-2.81,0-5.05-1.03-6.72-3.1-1.66-2.07-2.49-4.89-2.49-8.47v-.65c0-2.21,.37-4.18,1.11-5.9,.74-1.72,1.8-3.06,3.18-4.01,1.38-.95,3.02-1.43,4.9-1.43,2.32,0,4.24,.76,5.78,2.29,1.54,1.53,2.35,3.51,2.46,5.94h-3.34c-.1-1.47-.61-2.68-1.52-3.62-.91-.94-2.04-1.42-3.37-1.42-1.8,0-3.19,.71-4.17,2.13-.99,1.42-1.48,3.48-1.48,6.16v.74c0,2.62,.49,4.63,1.47,6.05,.98,1.41,2.38,2.12,4.2,2.12Z"/><path class="cls-2" d="M529.48,29.66v5.5h3.86v3h-3.86v14.11c0,.91,.17,1.59,.52,2.05s.93,.68,1.76,.68c.41,0,.97-.08,1.68-.25v3.13c-.93,.28-1.83,.42-2.71,.42-1.58,0-2.77-.53-3.57-1.58s-1.2-2.54-1.2-4.47v-14.09h-3.76v-3h3.76v-5.5h3.54Z"/></g><g><path class="cls-2" d="M6.9,46.35v11.97H3.23V27.74H13.49c3.04,0,5.43,.85,7.16,2.56,1.73,1.71,2.59,3.97,2.59,6.78,0,2.97-.84,5.25-2.53,6.85s-4.1,2.4-7.25,2.4H6.9Zm0-3.3h6.59c1.96,0,3.46-.51,4.51-1.52,1.04-1.02,1.57-2.49,1.57-4.41s-.52-3.28-1.57-4.38-2.48-1.66-4.3-1.7H6.9v12.01Z"/><path class="cls-2" d="M26.18,46.74c0-2.23,.4-4.23,1.19-6,.8-1.78,1.9-3.15,3.32-4.11s3.04-1.45,4.86-1.45c2.81,0,5.09,1.07,6.83,3.21,1.74,2.14,2.61,4.99,2.61,8.55v.27c0,2.21-.39,4.2-1.16,5.95-.77,1.76-1.87,3.12-3.31,4.1s-3.08,1.47-4.94,1.47c-2.8,0-5.07-1.07-6.81-3.21s-2.61-4.98-2.61-8.5v-.27Zm3.55,.46c0,2.52,.53,4.54,1.6,6.07s2.49,2.29,4.27,2.29,3.22-.77,4.28-2.32c1.06-1.55,1.59-3.71,1.59-6.5,0-2.49-.54-4.51-1.61-6.06-1.08-1.55-2.51-2.32-4.29-2.32s-3.15,.76-4.22,2.29c-1.07,1.53-1.6,3.71-1.6,6.55Z"/><path class="cls-2" d="M67.73,52.96l3.97-17.36h3.53l-6.02,22.72h-2.87l-5.02-17.22-4.89,17.22h-2.87l-6-22.72h3.52l4.07,17.01,4.81-17.01h2.85l4.91,17.36Z"/><path class="cls-2" d="M87.41,58.73c-2.8,0-5.08-1.01-6.84-3.03s-2.64-4.73-2.64-8.12v-.71c0-2.25,.39-4.27,1.18-6.04,.78-1.77,1.88-3.16,3.29-4.16,1.41-1,2.93-1.5,4.58-1.5,2.69,0,4.78,.97,6.27,2.92,1.49,1.95,2.23,4.73,2.23,8.36v1.62h-14c.05,2.24,.65,4.05,1.79,5.43,1.14,1.38,2.59,2.07,4.35,2.07,1.25,0,2.3-.28,3.17-.84,.87-.56,1.62-1.3,2.27-2.23l2.16,1.85c-1.73,2.93-4.33,4.39-7.79,4.39Zm-.44-20.37c-1.43,0-2.62,.57-3.59,1.71s-1.57,2.74-1.8,4.8h10.36v-.29c-.1-1.97-.59-3.5-1.45-4.59-.87-1.08-2.04-1.63-3.52-1.63Z"/><path class="cls-2" d="M109.56,39.08c-.54-.1-1.12-.15-1.74-.15-2.32,0-3.89,1.08-4.72,3.25v16.12h-3.54v-22.72h3.44l.06,2.62c1.16-2.03,2.8-3.04,4.93-3.04,.69,0,1.21,.1,1.57,.29v3.61Z"/><path class="cls-2" d="M121.02,58.73c-2.8,0-5.08-1.01-6.84-3.03-1.76-2.02-2.64-4.73-2.64-8.12v-.71c0-2.25,.39-4.27,1.17-6.04s1.88-3.16,3.29-4.16c1.41-1,2.93-1.5,4.58-1.5,2.69,0,4.78,.97,6.27,2.92,1.49,1.95,2.24,4.73,2.24,8.36v1.62h-14c.05,2.24,.65,4.05,1.79,5.43,1.14,1.38,2.59,2.07,4.35,2.07,1.25,0,2.31-.28,3.17-.84,.87-.56,1.62-1.3,2.27-2.23l2.16,1.85c-1.73,2.93-4.33,4.39-7.79,4.39Zm-.44-20.37c-1.43,0-2.62,.57-3.59,1.71-.97,1.14-1.57,2.74-1.8,4.8h10.36v-.29c-.1-1.97-.59-3.5-1.45-4.59-.87-1.08-2.04-1.63-3.52-1.63Z"/><path class="cls-2" d="M132.31,46.76c0-3.49,.75-6.29,2.25-8.41,1.5-2.12,3.47-3.18,5.9-3.18s4.34,.91,5.75,2.73v-11.84h3.54V58.31h-3.25l-.17-2.44c-1.41,1.9-3.38,2.86-5.9,2.86s-4.35-1.08-5.86-3.23-2.26-4.97-2.26-8.44v-.29Zm3.53,.44c0,2.58,.48,4.59,1.45,6.05,.97,1.46,2.31,2.18,4.01,2.18,2.24,0,3.88-1.11,4.91-3.32v-10.43c-1.06-2.14-2.68-3.21-4.87-3.21-1.73,0-3.08,.73-4.05,2.2s-1.45,3.65-1.45,6.53Z"/><path class="cls-2" d="M182.43,47.21c0,3.47-.73,6.26-2.18,8.37s-3.4,3.16-5.85,3.16c-2.61,0-4.63-1.01-6.06-3.04l-.17,2.62h-3.25V26.06h3.54v12.03c1.43-1.95,3.39-2.92,5.9-2.92s4.48,1.04,5.91,3.13c1.43,2.09,2.15,4.94,2.15,8.57v.34Zm-3.54-.44c0-2.65-.46-4.69-1.39-6.13s-2.27-2.16-4.01-2.16c-2.33,0-4.01,1.19-5.02,3.57v9.83c1.08,2.38,2.77,3.57,5.06,3.57,1.69,0,3.01-.72,3.96-2.16s1.41-3.61,1.41-6.51Z"/><path class="cls-2" d="M193.43,52.62l4.81-17.03h3.78l-8.31,26.22c-1.29,3.78-3.33,5.67-6.13,5.67l-.67-.06-1.32-.27v-3.15l.96,.08c1.2,0,2.13-.27,2.8-.8s1.22-1.5,1.65-2.92l.78-2.31-7.38-22.47h3.86l5.16,17.03Z"/></g></svg>